<svg xmlns="http://www.w3.org/2000/svg" viewBox="0 0 1000 560" width="100%" height="100%">
  <defs>
    <filter id="win-shadow" x="-5%" y="-5%" width="110%" height="115%">
      <feDropShadow dx="0" dy="18" stdDeviation="22" flood-color="#000000" flood-opacity="0.65" />
    </filter>
  </defs>

  <style>
    .mono { font-family: "Iosevka NF", "Iosevka", "JetBrains Mono", "SF Mono", monospace; }
    .term-text { font-size: 14px; fill: #eceff4; line-height: 1.5; }
    .term-green { font-size: 14px; fill: #a3be8c; }
    .term-yellow { font-size: 14px; fill: #ebcb8b; }
    .term-cyan { font-size: 14px; fill: #88c0d0; }
    .term-dim { font-size: 14px; fill: #4c566a; }
  </style>

  <!-- Container with Shadow -->
  <g transform="translate(30, 20)" filter="url(#win-shadow)">
    <!-- Terminal Background -->
    <rect width="940" height="515" rx="10" fill="#000000" stroke="#2e3440" stroke-width="1.5" />

    <!-- macOS Window Bar -->
    <rect width="940" height="34" rx="10" fill="#181a1f" />
    <path d="M 0 24 L 0 34 L 940 34 L 940 24 Z" fill="#181a1f" />
    
    <!-- Window Controls -->
    <circle cx="20" cy="17" r="6" fill="#ff5f56" stroke="#e0443e" stroke-width="0.5" />
    <circle cx="40" cy="17" r="6" fill="#ffbd2e" stroke="#dea123" stroke-width="0.5" />
    <circle cx="60" cy="17" r="6" fill="#27c93f" stroke="#1aab29" stroke-width="0.5" />
    
    <!-- Titlebar label -->
    <text x="470" y="22" class="mono" font-size="12" fill="#717885" text-anchor="middle">alexchen — analytics_pipeline.py — Starship (Iosevka NF)</text>

    <!-- Top Starship Prompt Line -->
    <g transform="translate(18, 52)">
      <!-- Segment 0: OS + Username (glass0 #3b414a) -->
      <path d="M 12 0 C 5.37 0 0 5.37 0 12 C 0 18.63 5.37 24 12 24 L 12 0 Z" fill="#3b414a" />
      <path d="M 12 0 L 104 0 L 116 12 L 104 24 L 12 24 Z" fill="#3b414a" />
      <!-- Apple Logo Vector Icon -->
      <path d="M 12.2 4.6 C 12.8 3.8 13.2 2.7 13.0 1.6 C 12.0 1.7 10.9 2.2 10.3 3.0 C 9.7 3.6 9.3 4.7 9.4 5.8 C 10.5 5.9 11.6 5.3 12.2 4.6 Z M 13.0 6.0 C 11.6 5.9 10.4 6.8 9.7 6.8 C 9.0 6.8 7.9 6.0 6.9 6.1 C 5.4 6.1 4.1 6.9 3.4 8.2 C 1.9 10.8 3.0 14.7 4.5 16.8 C 5.2 17.8 6.0 18.9 7.1 18.9 C 8.2 18.8 8.6 18.1 9.8 18.1 C 11.0 18.1 11.4 18.9 12.5 18.8 C 13.6 18.8 14.3 17.8 15.0 16.8 C 15.8 15.6 16.1 14.5 16.2 14.4 C 16.1 14.3 13.8 13.4 13.8 10.8 C 13.8 8.5 15.6 7.4 15.7 7.3 C 14.6 5.8 13.1 6.0 13.0 6.0 Z" fill="#c8ced8" transform="translate(12, 2.5) scale(0.95)" />
      <text x="34" y="16.5" class="mono" font-size="12.5" font-weight="600" fill="#c8ced8">alexchen</text>

      <!-- Segment 1: Directory (glass1 #424852) -->
      <path d="M 104 0 L 308 0 L 320 12 L 308 24 L 104 24 L 116 12 Z" fill="#424852" />
      <text x="122" y="16.5" class="mono" font-size="12.5" fill="#c8ced8">~/projects/data-analytics</text>

      <!-- Segment 2: Git Branch (glass2 #4a505a) -->
      <path d="M 308 0 L 376 0 L 388 12 L 376 24 L 308 24 L 320 12 Z" fill="#4a505a" />
      <!-- Git Branch Icon -->
      <g transform="translate(324, 4.5)">
        <circle cx="3" cy="3" r="2" fill="none" stroke="#c8ced8" stroke-width="1.3" />
        <circle cx="3" cy="12" r="2" fill="none" stroke="#c8ced8" stroke-width="1.3" />
        <circle cx="11" cy="4" r="2" fill="none" stroke="#c8ced8" stroke-width="1.3" />
        <line x1="3" y1="5" x2="3" y2="10" stroke="#c8ced8" stroke-width="1.3" />
        <path d="M 3 8 C 5 8 9 7 11 6" fill="none" stroke="#c8ced8" stroke-width="1.3" />
      </g>
      <text x="342" y="16.5" class="mono" font-size="12.5" fill="#c8ced8">main</text>

      <!-- Segment 3: Python (glass3 #515862) -->
      <path d="M 376 0 L 458 0 L 470 12 L 458 24 L 376 24 L 388 12 Z" fill="#515862" />
      <!-- Python Icon -->
      <g transform="translate(393, 4.5)">
        <path d="M 7 1 C 4.5 1 3 2 3 3.5 L 3 5 L 8 5 L 8 6 L 1.5 6 C 0.5 6 0 7.5 0 9 C 0 10.5 1 11.5 2.5 11.5 L 4 11.5 L 4 10 C 4 8.5 5.5 7.5 7 7.5 L 10.5 7.5 C 11.5 7.5 12 6.5 12 5.5 C 12 4 11 1 7 1 Z M 5 2.5 A 0.8 0.8 0 1 1 5 4.1 A 0.8 0.8 0 0 1 5 2.5 Z" fill="#ebcb8b" />
        <path d="M 7 14 C 9.5 14 11 13 11 11.5 L 11 10 L 6 10 L 6 9 L 12.5 9 C 13.5 9 14 7.5 14 6 C 14 4.5 13 3.5 11.5 3.5 L 10 3.5 L 10 5 C 10 6.5 8.5 7.5 7 7.5 L 3.5 7.5 C 2.5 7.5 2 8.5 2 9.5 C 2 11 3 14 7 14 Z M 9 12.5 A 0.8 0.8 0 1 1 9 10.9 A 0.8 0.8 0 0 1 9 12.5 Z" fill="#88c0d0" />
      </g>
      <text x="413" y="16.5" class="mono" font-size="12.5" fill="#c8ced8">3.11.4</text>

      <!-- Segment 4: Time (glass5 #626a75) with Right Cap -->
      <path d="M 458 0 L 552 0 C 558.63 0 564 5.37 564 12 C 564 18.63 558.63 24 552 24 L 458 24 L 470 12 Z" fill="#626a75" />
      <!-- Clock Icon -->
      <g transform="translate(476, 5)">
        <circle cx="7" cy="7" r="6" fill="none" stroke="#c8ced8" stroke-width="1.3" />
        <polyline points="7,3.5 7,7 9.5,8.2" fill="none" stroke="#c8ced8" stroke-width="1.3" stroke-linecap="round" />
      </g>
      <text x="496" y="16.5" class="mono" font-size="12.5" fill="#c8ced8">09:42 PM</text>

      <!-- Trailing Prompt -->
      <text x="576" y="16.5" class="mono" font-size="14" font-weight="bold" fill="#c8ced8">❯</text>
      <text x="594" y="16.5" class="mono" font-size="13.5" fill="#eceff4">python3 analytics_pipeline.py</text>
    </g>

    <!-- Terminal Content Stream -->
    <g transform="translate(18, 100)">
      <text x="0" y="18" class="mono term-text" font-weight="bold">Data Analytics &amp; Prediction Pipeline</text>
      <text x="0" y="34" class="mono term-dim">------------------------------------</text>

      <text x="0" y="62" class="mono term-text"><tspan fill="#88c0d0">Enter dataset path: </tspan><tspan fill="#a3be8c" font-weight="bold">data/customer_churn.csv</tspan></text>
      <text x="0" y="82" class="mono term-text"><tspan fill="#88c0d0">Enter cross-validation folds: </tspan><tspan fill="#a3be8c" font-weight="bold">5</tspan></text>
      <text x="0" y="102" class="mono term-text"><tspan fill="#88c0d0">Select classification model: </tspan><tspan fill="#a3be8c" font-weight="bold">2 (Gradient Boosting)</tspan></text>

      <text x="0" y="140" class="mono term-text" font-weight="bold">Dataset &amp; Training Summary</text>
      <text x="0" y="156" class="mono term-dim">--------------------------</text>
      <text x="0" y="176" class="mono term-text">Total Records: 14,250 | Features: 18 numeric, 4 categorical</text>
      <text x="0" y="194" class="mono term-text">Preprocessing: Missing values imputed (34), One-Hot encoded</text>
      <text x="0" y="212" class="mono term-text">Train Split: 11,400 (80%) | Test Split: 2,850 (20%)</text>
      <text x="0" y="230" class="mono term-text">Accuracy: <tspan fill="#a3be8c" font-weight="bold">94.62%</tspan>  |  Precision: 0.931  |  Recall: 0.945</text>
      <text x="0" y="248" class="mono term-text">F1-Score: <tspan fill="#ebcb8b" font-weight="bold">0.938</tspan>   |  ROC-AUC: <tspan fill="#a3be8c" font-weight="bold">0.971</tspan></text>
      <text x="0" y="266" class="mono term-text">Optimization: Converged in 42 iterations (early stopping)</text>
      <text x="0" y="284" class="mono term-text">Top Predictors: tenure, total_charges, contract_type</text>

      <text x="0" y="324" class="mono term-green">✓ All 5 folds evaluated  |  Model weights exported to models/gb_classifier.pkl</text>
    </g>

    <!-- Bottom Starship Prompt Line with Execution Duration -->
    <g transform="translate(18, 468)">
      <!-- Segment 0: OS + Username -->
      <path d="M 12 0 C 5.37 0 0 5.37 0 12 C 0 18.63 5.37 24 12 24 L 12 0 Z" fill="#3b414a" />
      <path d="M 12 0 L 104 0 L 116 12 L 104 24 L 12 24 Z" fill="#3b414a" />
      <path d="M 12.2 4.6 C 12.8 3.8 13.2 2.7 13.0 1.6 C 12.0 1.7 10.9 2.2 10.3 3.0 C 9.7 3.6 9.3 4.7 9.4 5.8 C 10.5 5.9 11.6 5.3 12.2 4.6 Z M 13.0 6.0 C 11.6 5.9 10.4 6.8 9.7 6.8 C 9.0 6.8 7.9 6.0 6.9 6.1 C 5.4 6.1 4.1 6.9 3.4 8.2 C 1.9 10.8 3.0 14.7 4.5 16.8 C 5.2 17.8 6.0 18.9 7.1 18.9 C 8.2 18.8 8.6 18.1 9.8 18.1 C 11.0 18.1 11.4 18.9 12.5 18.8 C 13.6 18.8 14.3 17.8 15.0 16.8 C 15.8 15.6 16.1 14.5 16.2 14.4 C 16.1 14.3 13.8 13.4 13.8 10.8 C 13.8 8.5 15.6 7.4 15.7 7.3 C 14.6 5.8 13.1 6.0 13.0 6.0 Z" fill="#c8ced8" transform="translate(12, 2.5) scale(0.95)" />
      <text x="34" y="16.5" class="mono" font-size="12.5" font-weight="600" fill="#c8ced8">alexchen</text>

      <!-- Segment 1: Directory -->
      <path d="M 104 0 L 308 0 L 320 12 L 308 24 L 104 24 L 116 12 Z" fill="#424852" />
      <text x="122" y="16.5" class="mono" font-size="12.5" fill="#c8ced8">~/projects/data-analytics</text>

      <!-- Segment 2: Git Branch -->
      <path d="M 308 0 L 376 0 L 388 12 L 376 24 L 308 24 L 320 12 Z" fill="#4a505a" />
      <g transform="translate(324, 4.5)">
        <circle cx="3" cy="3" r="2" fill="none" stroke="#c8ced8" stroke-width="1.3" />
        <circle cx="3" cy="12" r="2" fill="none" stroke="#c8ced8" stroke-width="1.3" />
        <circle cx="11" cy="4" r="2" fill="none" stroke="#c8ced8" stroke-width="1.3" />
        <line x1="3" y1="5" x2="3" y2="10" stroke="#c8ced8" stroke-width="1.3" />
        <path d="M 3 8 C 5 8 9 7 11 6" fill="none" stroke="#c8ced8" stroke-width="1.3" />
      </g>
      <text x="342" y="16.5" class="mono" font-size="12.5" fill="#c8ced8">main</text>

      <!-- Segment 3: Python -->
      <path d="M 376 0 L 458 0 L 470 12 L 458 24 L 376 24 L 388 12 Z" fill="#515862" />
      <g transform="translate(393, 4.5)">
        <path d="M 7 1 C 4.5 1 3 2 3 3.5 L 3 5 L 8 5 L 8 6 L 1.5 6 C 0.5 6 0 7.5 0 9 C 0 10.5 1 11.5 2.5 11.5 L 4 11.5 L 4 10 C 4 8.5 5.5 7.5 7 7.5 L 10.5 7.5 C 11.5 7.5 12 6.5 12 5.5 C 12 4 11 1 7 1 Z M 5 2.5 A 0.8 0.8 0 1 1 5 4.1 A 0.8 0.8 0 0 1 5 2.5 Z" fill="#ebcb8b" />
        <path d="M 7 14 C 9.5 14 11 13 11 11.5 L 11 10 L 6 10 L 6 9 L 12.5 9 C 13.5 9 14 7.5 14 6 C 14 4.5 13 3.5 11.5 3.5 L 10 3.5 L 10 5 C 10 6.5 8.5 7.5 7 7.5 L 3.5 7.5 C 2.5 7.5 2 8.5 2 9.5 C 2 11 3 14 7 14 Z M 9 12.5 A 0.8 0.8 0 1 1 9 10.9 A 0.8 0.8 0 0 1 9 12.5 Z" fill="#88c0d0" />
      </g>
      <text x="413" y="16.5" class="mono" font-size="12.5" fill="#c8ced8">3.11.4</text>

      <!-- Segment 4: Time with Right Cap -->
      <path d="M 458 0 L 552 0 C 558.63 0 564 5.37 564 12 C 564 18.63 558.63 24 552 24 L 458 24 L 470 12 Z" fill="#626a75" />
      <g transform="translate(476, 5)">
        <circle cx="7" cy="7" r="6" fill="none" stroke="#c8ced8" stroke-width="1.3" />
        <polyline points="7,3.5 7,7 9.5,8.2" fill="none" stroke="#c8ced8" stroke-width="1.3" stroke-linecap="round" />
      </g>
      <text x="496" y="16.5" class="mono" font-size="12.5" fill="#c8ced8">09:42 PM</text>

      <!-- Execution Duration badge (starship cmd_duration) -->
      <g transform="translate(576, 4.5)">
        <circle cx="7" cy="7.5" r="5.5" fill="none" stroke="#9da5b1" stroke-width="1.3" />
        <polyline points="7,4.5 7,7.5 9,7.5" fill="none" stroke="#9da5b1" stroke-width="1.3" stroke-linecap="round" />
        <line x1="5.5" y1="0.8" x2="8.5" y2="0.8" stroke="#9da5b1" stroke-width="1.3" stroke-linecap="round" />
        <line x1="7" y1="0.8" x2="7" y2="2" stroke="#9da5b1" stroke-width="1.3" />
      </g>
      <text x="595" y="16.5" class="mono" font-size="12.5" fill="#9da5b1">1s240ms</text>

      <!-- Prompt Arrow -->
      <text x="662" y="16.5" class="mono" font-size="14" font-weight="bold" fill="#c8ced8">❯</text>

      <!-- Terminal Cursor Block -->
      <rect x="678" y="3.5" width="9" height="17" fill="#c8ced8" opacity="0.9" />
    </g>
  </g>
</svg>